<svg width="96" height="16" viewBox="0 0 96 16" fill="none" xmlns="http://www.w3.org/2000/svg">
<path d="M45.295 6.14382C45.295 6.14382 37.4665 1.84911 30.1011 2.33439C19.9138 3.00468 14.4555 5.44927 12.963 6.21661C12.9423 6.22877 12.9182 6.23276 12.895 6.22786C12.8718 6.22297 12.851 6.20951 12.8362 6.18987C12.8215 6.17024 12.8138 6.1457 12.8145 6.12061C12.8152 6.09552 12.8243 6.07151 12.8401 6.05283L15.2704 2.85303L14.3183 4.73348C14.3068 4.75303 14.3016 4.776 14.3035 4.79895C14.3054 4.82189 14.3143 4.84356 14.3288 4.86068C14.3433 4.8778 14.3627 4.88944 14.384 4.89385C14.4053 4.89826 14.4274 4.8952 14.4469 4.88513C15.8308 4.24214 22.3956 1.47302 32.2027 1.65197C39.0877 1.76419 45.295 6.14382 45.295 6.14382Z" fill="#216095"/>
<path d="M45.4176 6.80503C45.4176 6.80503 37.0286 3.39899 29.2573 3.88426C18.5124 4.55455 11.6588 8.28209 9.72885 9.46799C9.70706 9.48492 9.68 9.49236 9.6532 9.48881C9.6264 9.48525 9.6019 9.47095 9.58472 9.44885C9.56753 9.42674 9.55897 9.39851 9.56079 9.36992C9.5626 9.34134 9.57465 9.31457 9.59447 9.29511L12.5366 5.59184L11.5159 7.46319C11.5045 7.4849 11.5001 7.50992 11.5033 7.53452C11.5064 7.55912 11.517 7.58198 11.5334 7.5997C11.5497 7.61742 11.5711 7.62906 11.5942 7.63288C11.6173 7.6367 11.641 7.6325 11.6617 7.6209C12.488 7.11743 14.8068 5.8739 19.027 4.7426C23.0953 3.65721 27.2785 3.13223 31.4732 3.18061C38.7385 3.31407 45.4176 6.80503 45.4176 6.80503Z" fill="#216095"/>
<path d="M45.2945 5.51602C45.2945 5.51602 38.3323 0.593483 30.4065 0.696605C21.8632 0.805792 17.1341 2.83486 15.7959 3.50818C15.775 3.51802 15.7515 3.52015 15.7293 3.51424C15.7071 3.50834 15.6873 3.49473 15.6732 3.47558C15.6591 3.45642 15.6514 3.43282 15.6514 3.40851C15.6513 3.3842 15.6589 3.36057 15.673 3.34137L18.0633 0.0536135L17.0569 1.98259C17.0455 2.00165 17.0402 2.02404 17.0417 2.04652C17.0431 2.06899 17.0513 2.09039 17.065 2.10762C17.0787 2.12485 17.0972 2.137 17.1178 2.14233C17.1385 2.14767 17.1602 2.14589 17.1798 2.13727C22.1399 0.306321 27.4157 -0.360118 32.6424 0.18403C39.8562 0.960473 45.2945 5.51602 45.2945 5.51602Z" fill="#216095"/>
<path d="M45.8262 6.14386C45.8262 6.14386 53.6547 1.84916 61.02 2.33444C71.2074 3.00473 76.6657 5.44931 78.1582 6.21666C78.1789 6.22882 78.203 6.2328 78.2262 6.22791C78.2494 6.22301 78.2702 6.20955 78.285 6.18992C78.2997 6.17028 78.3074 6.14574 78.3067 6.12065C78.306 6.09557 78.2969 6.07156 78.2811 6.05288L75.8537 2.85308L76.8058 4.7214C76.8153 4.74108 76.8189 4.76337 76.8162 4.7853C76.8135 4.80723 76.8046 4.82778 76.7907 4.84422C76.7767 4.86066 76.7584 4.87222 76.7381 4.87737C76.7178 4.88252 76.6966 4.88101 76.6771 4.87305C75.2904 4.23006 68.7256 1.46094 58.9185 1.63989C52.0335 1.76424 45.8262 6.14386 45.8262 6.14386Z" fill="#216095"/>
<path d="M45.7031 6.80503C45.7031 6.80503 54.0921 3.39898 61.8634 3.88426C72.6083 4.55455 79.4619 8.28209 81.3919 9.46798C81.4137 9.48491 81.4407 9.49236 81.4675 9.4888C81.4943 9.48524 81.5188 9.47095 81.536 9.44884C81.5532 9.42674 81.5617 9.3985 81.5599 9.36992C81.5581 9.34133 81.5461 9.31457 81.5262 9.2951L78.5841 5.59183L79.6049 7.47228C79.6162 7.494 79.6206 7.51902 79.6175 7.54362C79.6143 7.56821 79.6037 7.59107 79.5874 7.6088C79.571 7.62652 79.5496 7.63815 79.5265 7.64197C79.5034 7.64579 79.4797 7.64159 79.459 7.63C78.6327 7.12652 76.3139 5.883 72.0937 4.75169C68.0254 3.6663 63.8423 3.14132 59.6475 3.18971C52.3823 3.31406 45.7031 6.80503 45.7031 6.80503Z" fill="#216095"/>
<path d="M45.8262 5.51603C45.8262 5.51603 52.7884 0.593494 60.7141 0.696615C69.2574 0.805802 73.9866 2.83487 75.3247 3.50819C75.3457 3.51803 75.3691 3.52016 75.3913 3.51426C75.4136 3.50835 75.4333 3.49474 75.4474 3.47559C75.4616 3.45644 75.4692 3.43283 75.4693 3.40852C75.4693 3.38421 75.4617 3.36058 75.4476 3.34138L73.0573 0.053624L74.0638 1.9826C74.0751 2.00166 74.0804 2.02405 74.079 2.04653C74.0775 2.06901 74.0693 2.09041 74.0556 2.10763C74.0419 2.12486 74.0234 2.13701 74.0028 2.14235C73.9822 2.14768 73.9605 2.1459 73.9408 2.13728C68.9818 0.306202 63.7069 -0.360246 58.4811 0.18404C51.2673 0.960484 45.8262 5.51603 45.8262 5.51603Z" fill="#216095"/>
<path d="M48 11.2999C66.2313 11.2999 82.9521 12.9984 96 15.8221C83.9803 11.9824 66.9228 9.5863 48 9.5863C29.0772 9.5863 12.0227 11.9824 0 15.8221C13.0479 12.9984 29.7687 11.2999 48 11.2999Z" fill="#216095"/>
</svg>
