<svg width="72" height="52" viewBox="0 0 72 52" fill="none" xmlns="http://www.w3.org/2000/svg">
<path d="M68.9595 16.3733C69.3226 15.6308 70.4012 13.1214 70.6776 12.3355C71.2991 10.6761 71.7159 8.94701 71.9187 7.18663C72.0271 6.43353 72.0271 5.66879 71.9187 4.91569C71.8893 4.685 71.7898 4.46886 71.6338 4.29638C71.4778 4.1239 71.2727 4.00335 71.0461 3.95096C70.8456 3.8805 70.3957 4.22195 70.2169 4.49294C69.8538 5.03493 68.0489 9.01855 67.908 9.28412C67.2414 10.5361 66.4772 12.8558 64.0274 14.9696C61.2036 17.4085 57.5235 18.2215 53.9139 18.6876C51.9519 18.9478 49.952 18.9965 47.952 19.1429C47.6331 19.1548 47.3222 19.2464 47.0477 19.4092C46.7731 19.572 46.5437 19.8009 46.3803 20.0751C45.3776 21.7011 44.3966 23.2891 43.2855 24.8121C42.7256 25.5888 42.0069 26.2375 41.1771 26.7152C40.3474 27.193 39.4255 27.4888 38.4727 27.5832C37.5198 27.6775 36.5579 27.5681 35.6505 27.2623C34.7432 26.9564 33.9113 26.4612 33.21 25.8093C32.1886 24.8887 31.3067 23.8243 30.5922 22.6495C29.8927 21.4975 28.8793 20.5688 27.6708 19.9721C25.5842 18.7906 23.5138 17.5765 21.4976 16.2812C19.8716 15.2514 18.3649 14.1132 16.804 12.9859C13.5524 10.788 10.5131 8.29123 7.7257 5.52814C7.38966 5.18127 5.94255 3.67996 5.6553 3.36019C4.77186 2.41171 3.86674 1.47949 2.94536 0.552694C2.74634 0.314347 2.47989 0.14176 2.181 0.0576058C1.88211 -0.0265479 1.56476 -0.0183347 1.27062 0.0811631C0.965968 0.181956 0.695003 0.364793 0.487512 0.609576C0.280021 0.854358 0.144033 1.15161 0.0945011 1.46865C-0.111744 2.31486 0.0225528 3.20821 0.468474 3.95638C0.880385 4.65012 1.33024 5.32219 1.80718 5.97799C1.94268 6.16227 3.43315 8.07548 3.62284 8.28144C5.07537 10.0971 6.57126 11.8802 7.95875 13.7555C9.1728 15.414 8.79883 17.6633 8.79883 18.2757C8.79883 18.2757 8.25684 27.5762 7.93165 32.221C7.93165 32.6113 6.93981 42.9687 6.93981 45.6136C6.93981 47.581 6.88019 48.5457 7.22164 49.505C7.66607 50.7299 9.61181 50.589 10.2026 49.8519C10.5885 49.1898 10.8184 48.4483 10.8746 47.684C11.0698 45.9604 12.7337 36.6166 12.9017 33.3592C12.9505 32.4595 13.3244 32.0259 13.9856 32.1235C14.4084 32.1831 14.5873 32.7739 14.6252 32.931C15.2973 35.8036 17.0316 43.2288 17.1346 43.554C17.4761 44.6001 17.9422 47.1799 18.2186 48.2368C18.376 49.025 18.6833 49.7757 19.1237 50.4481C19.747 51.299 20.6196 51.2828 21.5301 50.9359C22.2726 50.6541 22.4081 49.3966 22.3377 48.4048C22.3377 48.1501 20.4028 35.8144 20.0668 32.5517C19.6711 28.7252 19.5248 24.8717 19.308 21.029C19.27 20.4166 19.4814 20.319 20.0722 20.6062C21.9258 21.5059 23.774 22.4165 25.6384 23.2837C26.6813 23.7153 27.5865 24.4237 28.2562 25.3324C29.687 27.2998 31.481 29.0071 33.1341 30.7902C33.3335 30.9653 33.4929 31.1813 33.6014 31.4236C33.7099 31.6658 33.7649 31.9285 33.7628 32.1939C33.7032 36.1396 33.6327 40.0907 33.6436 44.0364C33.7574 46.2043 33.6436 48.0471 34.0284 49.9332C34.0499 50.3544 34.2291 50.7521 34.5303 51.0473C34.8316 51.3425 35.2328 51.5136 35.6543 51.5267C36.2288 51.4887 36.8792 50.8871 36.9768 49.8682C37.2803 46.6975 37.5188 43.5215 37.8006 40.3454C37.8321 40.0867 37.8774 39.8298 37.9361 39.5758H38.1692C38.2202 39.7956 38.2582 40.0182 38.283 40.2425C38.4185 43.18 38.5323 46.123 38.684 49.0606C38.7328 49.9386 39.0309 50.9196 39.3778 51.196C40.3642 51.9711 41.2747 51.2719 41.6108 49.9495C41.6108 49.8302 41.8493 47.2395 41.8655 46.8872C42.066 42.405 42.3804 37.9282 42.4075 33.4459C42.368 32.6466 42.52 31.8493 42.8509 31.1206C43.1818 30.3918 43.682 29.7527 44.3099 29.2564C46.3205 27.5609 47.7088 25.2438 48.2556 22.6712C48.391 22.1292 48.7271 21.9937 49.2799 22.1292C51.7515 22.7912 54.3136 23.051 56.8677 22.8989C57.0358 22.8989 57.4097 23.224 57.3826 23.3704C56.9816 27.4353 56.8406 31.5652 55.0412 35.3483C54.3055 36.8867 53.1572 38.1907 51.7243 39.1151C51.2365 39.4349 51.2907 39.6571 51.5671 40.0419C52.432 40.989 53.3533 41.8831 54.3258 42.7194C54.5689 42.8348 54.7676 43.0264 54.8919 43.2651C55.0161 43.5038 55.059 43.7765 55.0141 44.0418C54.8244 45.8466 54.6673 47.6569 54.5643 49.4617C54.5608 49.9458 54.6742 50.4237 54.8949 50.8546C55.001 51.0286 55.1445 51.1768 55.315 51.2884C55.4855 51.4 55.6788 51.4722 55.8807 51.4997C56.0827 51.5272 56.2882 51.5094 56.4824 51.4475C56.6766 51.3856 56.8545 51.2812 57.0032 51.1418C57.5136 50.4959 57.8996 49.7608 58.1414 48.9739C58.6127 47.6873 59.0054 46.3733 59.3175 45.0391C59.4368 44.5892 59.6319 44.3453 60.1142 44.3616C60.3581 44.3616 60.602 44.3616 60.8459 44.3616C61.8052 44.3236 61.751 44.3236 61.7619 45.2559C61.7477 46.4024 61.8293 47.5482 62.0058 48.6812C62.0496 48.9309 62.174 49.1594 62.36 49.3316C62.546 49.5039 62.7832 49.6105 63.0356 49.6351C63.6697 49.6351 64.2713 49.608 64.6615 48.4482C65.1493 46.9631 65.5937 45.4618 65.9786 43.9497C66.0187 43.7144 66.1049 43.4893 66.2323 43.2874C66.3598 43.0856 66.5259 42.911 66.7211 42.7736C67.8051 41.9931 69.3605 40.92 70.3795 40.0636C70.9215 39.6246 70.3795 39.294 70.1248 38.6328C69.3443 36.4648 68.618 34.2969 67.9568 32.0801C67.9243 31.9663 67.2739 28.5355 67.2739 28.5247C67.2739 28.4109 66.7319 22.991 67.5503 19.3109C67.8647 18.2974 68.4934 17.3272 68.9595 16.3733Z" fill="#216095"/>
<path d="M59.4642 14.9371C59.9985 14.9421 60.5284 14.8406 61.0229 14.6383C61.5174 14.436 61.9666 14.1371 62.3441 13.759C62.7217 13.381 63.02 12.9314 63.2216 12.4366C63.4232 11.9419 63.5241 11.4118 63.5183 10.8776C63.4908 9.81759 63.053 8.80966 62.297 8.06615C61.541 7.32265 60.5259 6.90161 59.4656 6.89178C58.4053 6.88194 57.3826 7.28406 56.613 8.01342C55.8433 8.74277 55.3868 9.7424 55.3397 10.8017C55.3193 11.3493 55.4119 11.8953 55.6118 12.4055C55.8117 12.9158 56.1146 13.3794 56.5016 13.7674C56.8886 14.1554 57.3514 14.4595 57.8611 14.6608C58.3708 14.862 58.9165 14.9561 59.4642 14.9371Z" fill="#216095"/>
<path d="M38.007 25.663C38.4616 25.6819 38.9153 25.6092 39.3412 25.4492C39.767 25.2892 40.1564 25.0452 40.4861 24.7317C40.8158 24.4183 41.079 24.0417 41.2602 23.6244C41.4414 23.2071 41.5368 22.7576 41.5408 22.3027C41.5677 21.6077 41.3867 20.9206 41.021 20.3291C40.6553 19.7375 40.1215 19.2685 39.4878 18.982C38.8541 18.6955 38.1494 18.6045 37.4637 18.7207C36.778 18.8368 36.1426 19.1549 35.6386 19.6341C35.1346 20.1133 34.7851 20.732 34.6346 21.4109C34.4841 22.0899 34.5395 22.7983 34.7938 23.4456C35.0481 24.0929 35.4897 24.6496 36.0621 25.0446C36.6344 25.4396 37.3116 25.6549 38.007 25.663Z" fill="#216095"/>
<path d="M17.8392 10.8504C18.4275 10.8759 19.0149 10.783 19.5666 10.5773C20.1183 10.3717 20.6232 10.0574 21.0513 9.65305C21.4793 9.24874 21.8219 8.76264 22.0587 8.22354C22.2955 7.68444 22.4217 7.10331 22.4299 6.51455C22.4582 5.9078 22.3645 5.30154 22.1541 4.73172C21.9438 4.1619 21.6211 3.64013 21.2053 3.19735C20.7895 2.75457 20.289 2.3998 19.7336 2.15408C19.1781 1.90835 18.5789 1.77669 17.9716 1.76689C17.3643 1.75709 16.7611 1.86935 16.198 2.09702C15.6349 2.32468 15.1232 2.66312 14.6934 3.09226C14.2635 3.52139 13.9242 4.03248 13.6956 4.59521C13.4669 5.15795 13.3536 5.76087 13.3624 6.36821C13.2703 8.73127 15.2865 10.7583 17.8392 10.8504Z" fill="#216095"/>
</svg>
