<svg width="72" height="52" viewBox="0 0 72 52" fill="none" xmlns="http://www.w3.org/2000/svg">
<path d="M37.2549 9.5935C35.7745 7.48871 33.7572 5.66632 31.3387 4.24895C28.9202 2.83158 26.1566 1.85213 23.2339 1.37649C20.1311 0.838248 16.9108 0.952162 13.8771 1.70748C12.3661 2.1157 10.9775 2.77794 9.80153 3.65119C8.62554 4.52444 7.68846 5.58917 7.05113 6.77624C4.12773 11.8335 4.04731 18.026 6.34629 23.2488C7.54782 25.9813 9.45891 28.4484 11.5829 30.7653C13.7068 33.0822 16.1099 35.4146 18.5129 37.6391C23.3609 42.1286 28.556 46.3618 34.0666 50.3129C34.7714 50.8171 35.4857 51.3175 36.1905 51.8101C36.4318 51.9794 37.0136 51.8101 37.2359 51.7139C43.5522 49.1271 49.2326 45.6208 53.9958 41.3685C58.771 37.1233 62.5656 32.2119 65.1974 26.8704C67.6951 21.7708 69.4548 16.0055 68.3574 10.498C67.837 7.90392 66.5598 5.37916 64.3176 3.47789C61.8355 1.45689 58.5317 0.242916 55.0271 0.0640764C47.5246 -0.440106 40.7365 2.90058 35.954 7.37664C35.3296 7.9578 34.7383 8.5582 34.1659 9.174L35.4337 8.95077C29.8849 5.01738 23.3096 1.34955 15.6841 1.3611C12.4183 1.3436 9.20719 2.04296 6.38887 3.38552C3.51017 4.79186 1.42188 7.05864 0.570452 9.70127C-0.375632 12.5185 -0.0397713 15.5398 0.811704 18.3455C1.77013 21.368 3.21768 24.2735 5.11639 26.9859C8.98587 32.6358 14.3786 37.4698 20.2253 41.7996C23.3663 44.1088 26.6445 46.3141 29.9464 48.4771C31.479 49.4816 32.9928 50.6632 34.7336 51.4291C35.5399 51.7701 36.4282 51.9634 37.3361 51.9953C38.2441 52.0272 39.1496 51.897 39.989 51.6138C41.8055 51.0788 43.4423 50.1128 44.9607 49.1622C46.534 48.1616 48.0316 47.0846 49.4452 45.937C52.3165 43.6277 54.9939 41.1338 57.6146 38.6244C62.6856 33.7981 67.4964 28.5061 69.8096 22.3636C71.9525 16.6867 71.9809 10.1593 68.1823 4.92886C67.2862 3.60141 66.0389 2.45248 64.5305 1.56508C63.0233 0.776031 61.3118 0.282009 59.5304 0.121808C55.9069 -0.263064 52.0942 0.302698 48.6741 1.27642C45.2277 2.26419 42.0557 3.79721 39.341 5.78712C38.0354 6.74545 36.9758 7.91931 35.5566 8.80067C35.2607 9.02988 34.9118 9.20912 34.5302 9.32803C34.1486 9.44693 33.7418 9.50315 33.3333 9.49344C32.5178 9.38736 31.7591 9.08741 31.1526 8.63132C29.8423 7.74612 28.8584 6.5915 27.5007 5.74864C26.0713 4.88074 24.444 4.25277 22.7135 3.90125C19.3266 3.20046 15.7696 3.25898 12.4202 4.07059C9.21766 4.84034 6.24222 6.37982 4.71903 8.88919C3.035 11.6526 3.25733 14.9355 3.46547 17.926C3.70199 21.259 4.25072 24.6381 5.90637 27.721C7.50525 30.6922 9.9698 33.2901 12.3256 35.8803C16.6208 40.6103 21.1762 45.4097 27.2216 48.7504C28.6847 49.5603 30.231 50.2659 31.8433 50.8595C33.6266 51.5137 35.5424 52.068 37.5198 51.8717C39.4971 51.6754 41.1433 50.8171 42.7232 49.905C44.3032 48.9928 45.6939 48.0768 47.1036 47.0877C52.7801 43.0889 57.5105 38.2934 61.5976 33.1861C63.6506 30.6152 65.538 27.9557 67.3025 25.2501C69.2278 22.3058 71.1436 19.2384 71.7964 15.9093C72.4492 12.5801 71.4936 9.47035 69.4832 6.6146C67.7188 4.10523 65.2873 1.61126 61.7253 0.818425C58.0072 -0.0282932 53.8066 0.691418 50.2777 1.77291C48.4507 2.32963 46.7055 3.04992 45.0742 3.92049C43.4391 4.85601 41.8752 5.87137 40.3911 6.96098C37.6049 8.88534 33.9199 11.0445 30.0883 9.80518C28.286 9.22018 27.1601 7.88083 25.7552 6.86476C24.534 6.00101 23.0481 5.42247 21.4553 5.19057C19.9271 4.96155 18.3557 5.00867 16.8524 5.32857C15.3491 5.64848 13.9507 6.23336 12.756 7.0418C12.5053 7.21885 12.9736 7.27273 13.0966 7.27273C13.4309 7.26424 13.7521 7.16538 14.0096 6.99177C16.4221 5.30988 19.9936 5.14824 22.7798 6.3144C24.3172 6.95713 25.372 8.03862 26.6067 8.9854C27.8088 9.95381 29.3949 10.5431 31.0817 10.6481C34.7241 10.8597 38.0212 9.33949 40.7459 7.52674C42.2171 6.54917 43.6078 5.48692 45.1405 4.57093C46.6765 3.65877 48.3447 2.90388 50.1074 2.32328C53.5181 1.16866 57.7139 0.422007 61.2901 1.4804C64.7102 2.48877 67.0612 5.20597 68.6507 7.74227C70.4723 10.5413 71.0424 13.7682 70.2637 16.8714C69.4643 19.9927 67.6384 22.8677 65.8077 25.6581C62.468 30.8851 58.4867 35.8238 53.9249 40.3986C51.6518 42.6424 49.174 44.7433 46.5123 46.6836C45.1594 47.6637 43.7529 48.5926 42.2928 49.4701C40.779 50.3745 39.1139 51.4907 37.1319 51.4175C35.2397 51.3521 33.3475 50.6093 31.7061 49.9165C30.1926 49.279 28.7451 48.5428 27.3777 47.7151C24.6297 46.0152 22.1144 44.0797 19.8753 41.942C17.5763 39.8021 15.4665 37.5313 13.3946 35.2452C11.1051 32.7205 8.73043 30.1803 7.20723 27.2784C5.63673 24.2918 5.09746 21.0319 4.84202 17.8144C4.62442 14.897 4.36898 11.7334 5.90163 9.00465C8.78719 3.80503 17.5858 2.92752 23.461 4.88267C25.0529 5.41898 26.4876 6.22297 27.671 7.24194C28.7164 8.13099 29.7004 9.1663 31.0959 9.69742C31.7966 9.93804 32.5558 10.0448 33.3152 10.0094C34.0745 9.97404 34.8138 9.79753 35.4762 9.49344C36.8953 8.88919 37.9833 7.87697 39.0761 6.93789C43.8065 2.85825 51.0582 0.079471 58.0593 0.599048C59.8717 0.696782 61.6265 1.15683 63.1681 1.9384C64.6733 2.80272 65.9185 3.93296 66.8105 5.24445C68.565 7.72386 69.5944 10.4986 69.8191 13.3537C70.3678 19.3462 67.8891 25.1731 64.1 30.2419C62.0714 32.8926 59.8007 35.4155 57.3071 37.7892C54.852 40.1754 52.3118 42.5193 49.6675 44.7708C47.0232 47.0223 44.0714 49.3662 40.6513 50.8672C39.8283 51.2853 38.878 51.508 37.9077 51.5099C36.955 51.4224 36.0476 51.1316 35.2775 50.667C33.6834 49.7934 32.217 48.7427 30.7174 47.7497C24.5679 43.697 18.4183 39.498 13.2811 34.564C8.52229 30.011 4.55347 24.7921 2.50046 19.0152C0.665061 13.8386 0.655598 7.33046 6.63012 3.9051C12.2735 0.668327 19.7287 1.72288 25.4052 4.24763C28.5339 5.68426 31.4618 7.39282 34.1375 9.34334C34.4072 9.52808 35.216 9.34334 35.41 9.11626C39.6201 4.57093 45.6797 0.452799 53.045 0.525924C56.4999 0.517183 59.8383 1.54173 62.4254 3.40476C64.7906 5.15978 66.1625 7.56138 66.8105 10.0784C68.1587 15.3396 66.6355 20.8895 64.4027 25.8582C62.0561 31.0541 58.6056 35.8741 54.2087 40.0984C49.8323 44.3136 44.5629 47.8565 38.6503 50.5593C37.9219 50.8903 37.1839 51.2071 36.4365 51.5099L37.4867 51.4137C32.1161 47.6867 27.0308 43.6958 22.2594 39.4634C19.9226 37.3902 17.6646 35.2619 15.4855 33.0784C13.2241 30.915 11.2145 28.5856 9.48256 26.1199C6.231 21.248 5.31256 15.5689 6.90448 10.1785C7.62824 7.76536 8.79665 5.17518 11.1335 3.49329C13.5507 1.73442 17.037 1.39189 20.1544 1.61511C23.3999 1.87137 26.5226 2.75679 29.2609 4.19718C31.9992 5.63758 34.2732 7.59098 35.8925 9.8937C36.1054 10.2016 37.4062 9.80518 37.2643 9.5935H37.2549Z" fill="#DD0B17"/>
<path d="M13.234 6.66465C9.362 8.88136 6.6888 12.2267 5.76995 16.0055C4.8511 19.7843 5.75727 23.7058 8.30014 26.9551C8.51774 27.2361 9.79023 26.8088 9.67197 26.6549C7.74532 24.1776 6.75823 21.2935 6.83395 18.3626C6.90966 15.4317 8.04482 12.5839 10.0977 10.1747C11.2444 8.83583 12.6615 7.66465 14.2889 6.71084C14.5112 6.57998 14.4497 6.49146 14.2037 6.45682C13.8684 6.44169 13.5363 6.51602 13.2576 6.6685L13.234 6.66465Z" fill="#DD0B17"/>
</svg>
