<svg width="20" height="20" viewBox="0 0 20 20" fill="none" xmlns="http://www.w3.org/2000/svg">
<path d="M6.66602 10.8332H13.3327" stroke="url(#paint0_linear_77_37)" stroke-width="1.5" stroke-linecap="round" stroke-linejoin="round"/>
<path d="M6.66602 14.1667H13.3327" stroke="url(#paint1_linear_77_37)" stroke-width="1.5" stroke-linecap="round" stroke-linejoin="round"/>
<path fill-rule="evenodd" clip-rule="evenodd" d="M4.99967 2.5H12.643C13.0847 2.5 13.5088 2.67583 13.8213 2.98833L16.178 5.345C16.4905 5.6575 16.6663 6.08167 16.6663 6.52333V15.8333C16.6663 16.7542 15.9205 17.5 14.9997 17.5H4.99967C4.07884 17.5 3.33301 16.7542 3.33301 15.8333V4.16667C3.33301 3.24583 4.07884 2.5 4.99967 2.5Z" stroke="url(#paint2_linear_77_37)" stroke-width="1.5" stroke-linecap="round" stroke-linejoin="round"/>
<path d="M16.6667 6.66667H13.3333C12.8733 6.66667 12.5 6.29333 12.5 5.83333V2.5" stroke="url(#paint3_linear_77_37)" stroke-width="1.5" stroke-linecap="round" stroke-linejoin="round"/>
<path d="M6.66602 7.50015H9.16602" stroke="url(#paint4_linear_77_37)" stroke-width="1.5" stroke-linecap="round" stroke-linejoin="round"/>
<defs>
<linearGradient id="paint0_linear_77_37" x1="-nan" y1="-nan" x2="-nan" y2="-nan" gradientUnits="userSpaceOnUse">
<stop stop-color="#1C9CD0"/>
<stop offset="1" stop-color="#6AD1B3"/>
</linearGradient>
<linearGradient id="paint1_linear_77_37" x1="-nan" y1="-nan" x2="-nan" y2="-nan" gradientUnits="userSpaceOnUse">
<stop stop-color="#1C9CD0"/>
<stop offset="1" stop-color="#6AD1B3"/>
</linearGradient>
<linearGradient id="paint2_linear_77_37" x1="64.999" y1="-19.25" x2="70.9933" y2="-4.41649" gradientUnits="userSpaceOnUse">
<stop stop-color="#1C9CD0"/>
<stop offset="1" stop-color="#6AD1B3"/>
</linearGradient>
<linearGradient id="paint3_linear_77_37" x1="13" y1="0.999999" x2="22.3478" y2="0.449582" gradientUnits="userSpaceOnUse">
<stop stop-color="#1C9CD0"/>
<stop offset="1" stop-color="#6AD1B3"/>
</linearGradient>
<linearGradient id="paint4_linear_77_37" x1="-nan" y1="-nan" x2="-nan" y2="-nan" gradientUnits="userSpaceOnUse">
<stop stop-color="#1C9CD0"/>
<stop offset="1" stop-color="#6AD1B3"/>
</linearGradient>
</defs>
</svg>
